<?xml version="1.0" encoding="utf-8"?>
<!-- Generator: Adobe Illustrator 16.0.0, SVG Export Plug-In . SVG Version: 6.00 Build 0)  -->
<!DOCTYPE svg PUBLIC "-//W3C//DTD SVG 1.1//EN" "http://www.w3.org/Graphics/SVG/1.1/DTD/svg11.dtd">
<svg version="1.1" id="Layer_1" xmlns="http://www.w3.org/2000/svg" xmlns:xlink="http://www.w3.org/1999/xlink" x="0px" y="0px"
	 width="20px" height="20px" viewBox="0 0 100 100" enable-background="new 0 0 100 100" xml:space="preserve">
<path fill-rule="evenodd" clip-rule="evenodd" fill="#6F6F6F" d="M10.201,1.108c-0.004,9.471-0.015,45.974-0.015,46.37
	c11.733,1.324,21.868,6.026,30.204,14.366c8.322,8.326,13.04,18.428,14.378,30.224c15.384,0,30.766,0,46.083,0
	c0.095,0.153,0.148,0.2,0.148,0.248c-0.007,3.228-0.019,6.457-0.029,9.685c-33.519,0-67.037,0-100.555,0
	c-0.025-0.363-0.071-0.726-0.071-1.088C0.341,68.007,0.391,1.472,0.416,1.108C3.678,1.108,6.939,1.108,10.201,1.108z M10.236,55.368
	c0,12.217,0,24.43,0,36.665c12.262,0,24.475,0,36.693,0C44.751,72.442,28.744,57.289,10.236,55.368z"/>
</svg>
